<svg xmlns="http://www.w3.org/2000/svg" id="Layer_1" data-name="Layer 1" viewBox="0 0 1632.6196289062 452.7861328125"><defs><style> .cls-1 { fill: none; stroke: #2a2f83; stroke-miterlimit: 10; stroke-width: 7px; } .cls-2 { fill: #2a2f83; } </style></defs><g><path class="cls-2" d="m192.7817308538,53.2922553453h-4.3149554438c-6.6489475494-39.3398010026-18.0466939093-41.9402825832-55.1400434381-41.9402825832h-60.1899532828v102.4341940563h46.1923853307c36.7439241908,0,49.3413242591-7.7523474159,50.0409971124-40.7579944128h5.2496018428v85.3474752529h-5.2496018428c-1.3993457066-34.3388960667-13.2970729216-37.0053942063-50.0409971124-37.0053942063h-46.1923853307v93.0148783284c0,18.0029321893,2.4500882524,20.3373389856,22.3961087234,20.3373389856h32.8944902318c28.3453834195,0,47.241483522-1.6669683119,60.1899532828-14.6689955654,8.3985407713-8.3348415598,15.747161174-20.3373389856,22.3961087234-35.3400537931h4.198859297l-19.596595133,62.6773573699H0v-4.6671856937c28.3445612423-.3337192421,35.693181645-6.3341540057,35.693181645-31.0049594428V36.0227781993C35.693181645,11.6856920043,27.9951359043,5.683629342,0,5.0178187565V.3506330627l192.7817308538-.3506330627v53.2922553453Z"></path><path class="cls-2" d="m475.8451200641,121.1913879377c0,42.7343060142-16.7970815426,76.4535547208-49.3413242591,100.4926207346-27.6457105663,20.6987672031-59.8397057675,25.7067701052-103.2317553305,25.7067701052h-97.9837978422v-4.6738100001c28.3453834195-.334192902,35.6940038223-6.3431443008,35.6940038223-31.0489659093V35.7227759094c0-24.3716287065-7.698867918-30.3822103146-35.6940038223-31.0489659093V0h108.1319318354c91.3340281155,0,142.4249455965,46.0713444063,142.4249455965,121.1913879377Zm-178.066140078,116.4494454395c10.8486290237,2.0035272027,26.1592533765,1.44237554,35.9579620316,1.44237554,66.1384058017,0,100.8151470432-45.1111277621,100.8151470432-115.2215381822S395.5603923756,5.4183714312,329.421986574,5.4183714312c-9.7987086551,0-20.7943775641,2.3235994174-31.6430065878,4.3271266201v227.8953353259Z"></path><path class="cls-2" d="m671.9353893135,0h85.3855755967v4.5871476886c-30.4452241567,1.3103850565-34.994330969,6.2255290046-34.994330969,28.1788786506v112.7187145658c0,26.8700935758-1.4001678838,46.8570656462-9.0982136246,60.9481049532-15.397735836,27.5228861314-42.3429513717,40.9579329194-81.5361416377,40.9579329194-40.9427834878,0-69.6375922454-13.1070505284-82.9354873442-36.0427889712-9.4484611399-16.71180942-9.7978864779-34.7340038965-9.7978864779-56.0329610051V35.0604001743c0-24.2477234811-7.34944258-30.1468562079-35.6940038223-30.4732524857V0h108.4813571734v4.5871476886c-27.9951359043.6543925374-35.6940038223,6.5535252642-35.6940038223,30.4732524857v121.5650136834c0,52.4282021134,16.0282443941,80.8559489678,61.1698871789,80.8559489678,50.0418192897,0,71.9159240632-35.8338973654,71.9159240632-88.9164920162V25.6878720877c0-21.9533496459-6.7582743349-19.7903393426-37.2026763143-21.1007243991V0Z"></path><path class="cls-2" d="m827.5057392147,213.8525253034c0,22.3174081008,4.681074023,26.98225224,36.00865219,28.3143677734v4.6632176244h-87.861720484v-4.6632176244c31.327578167-1.3321155335,36.00865219-5.9969596726,36.00865219-28.3143677734V24.3163946584c-5.7614520327-13.991279388-15.4831620631-19.9866125459-33.1279261737-19.9866125459-2.1607560193,0-3.961104026.333435512-6.1218600453.333435512V0h66.2566983756l143.6767388322,174.8796067476V33.3093943952c0-22.3174081008-5.0414820356-27.3140612373-36.3690602027-28.6461767708V0h88.2221284966v4.6632176244c-31.3284241952,1.3321155335-36.3690602027,6.3287686699-36.3690602027,28.6461767708v214.0813843823h-3.2411340289l-167.0821089472-201.7556560397v168.2174025656Z"></path><path class="cls-2" d="m1049.9202072775,123.5343777954c0-75.922071509,49.6915717744-123.5343777954,121.4290047569-123.5343777954,71.7382551598,0,121.4290047569,47.6123062864,121.4290047569,123.5343777954s-50.0409971124,123.8564009821-121.4290047569,123.8564009821c-71.3871854673,0-121.4290047569-47.9343294731-121.4290047569-123.8564009821Zm201.915226026,0c0-71.7389117716-32.0052362687-115.1979858315-80.9971351899-115.1979858315-48.9910767438,0-79.6250598331,43.45907406-79.6250598331,115.1979858315,0,71.7404826164,30.6339830892,115.5172944653,79.6250598331,115.5172944653,48.9918989211,0,80.9971351899-43.776811849,80.9971351899-115.5172944653Z"></path><path class="cls-2" d="m1365.5348191405,214.0387655608c0,22.3368439238,4.5499289896,27.0057505905,34.9951531462,28.339026239v4.6672787355h-85.3847534194v-4.6672787355c30.4435798022-1.3332756485,34.9935087917-6.0021823152,34.9935087917-28.339026239V36.3386801303c0-23.3363936774-9.0982136246-31.6714013948-33.9444106004-31.6714013948h-1.3993457066V0h71.7366108053l89.5844348937,189.0337424087L1562.9017605315,0h69.6367700681v4.6672787355c-26.2438983279,1.3332756485-33.2439155699,7.3338300326-33.2439155699,31.0055775361v175.6993579921c0,23.6701195724,6.6497697267,30.3381257462,33.2439155699,31.0055775361v4.6672787355h-104.6302788598v-4.6672787355c26.5941458432-1.0011776848,33.9427662459-7.3354579638,33.9427662459-31.0055775361V37.3398578151l-95.8823127505,206.7049355282h-3.849433959l-96.5844521356-207.0386614231v177.0326336406Z"></path></g><line class="cls-1" x1="25.2163732937" y1="309.9599257251" x2="1632.5392607087" y2="310.6790849657"></line><g><path class="cls-2" d="m480.3798828125,352.59375l-5.7495117188,23.390625h-2.1630859375c.341796875-2.73828125.5122070312-4.765625.5122070312-6.080078125,0-4.345703125-2.0493164062-7.779296875-6.1479492188-10.298828125-3.529296875-2.2265625-7.6474609375-3.341796875-12.3525390625-3.341796875-11.802734375,0-21.4418945312,5.3330078125-28.91796875,15.99609375-5.919921875,8.435546875-8.8994140625,17.876953125-8.9370117188,28.3212890625,0,7.376953125,1.8022460938,13.34765625,5.4077148438,17.9130859375,4.0224609375,5.076171875,9.734375,7.6142578125,17.134765625,7.6142578125,3.376953125,0,7.7221679688-.89453125,13.0356445312-2.6845703125l5.6357421875-19.1181640625c.796875-2.7021484375,1.1953125-4.8017578125,1.1953125-6.2998046875,0-3.0673828125-3.07421875-4.6015625-9.2221679688-4.6015625h-1.59375l.6264648438-2.1357421875h32.10546875l-.5693359375,2.1357421875c-4.7817382812,0-8.0458984375,1.388671875-9.791015625,4.1640625-.6831054688,1.0595703125-1.7275390625,3.92578125-3.130859375,8.599609375l-5.6923828125,18.7900390625c-8.615234375,3.5419921875-16.1669921875,5.3310546875-22.65625,5.3681640625-15.1801757812.0732421875-25.5024414062-5.2763671875-30.9672851562-16.05078125-2.390625-4.7109375-3.5859375-9.53125-3.5859375-14.4619140625,0-6.025390625,1.3276367188-11.9775390625,3.984375-17.857421875,2.6186523438-5.7705078125,6.185546875-10.8095703125,10.7021484375-15.119140625,10.0185546875-9.4951171875,21.7255859375-14.2431640625,35.1225585938-14.2431640625,5.3881835938,0,10.3603515625.876953125,14.9145507812,2.6298828125,1.7446289062.6572265625,3.0541992188,1.0048828125,3.927734375,1.0400390625,1.7075195312.037109375,3.376953125-1.185546875,5.0092773438-3.669921875h2.1630859375Z"></path><path class="cls-2" d="m533.5581054688,380.3125l-9.9047851562,32.6484375c-1.4799804688,4.89453125-2.2202148438,7.9619140625-2.2202148438,9.203125,0,1.1689453125.4555664062,1.8076171875,1.3662109375,1.9169921875,1.2895507812,0,3.9653320312-2.537109375,8.0263671875-7.6142578125l1.7080078125,1.259765625c-5.2373046875,8.03515625-10.3232421875,12.087890625-15.255859375,12.1611328125-3.07421875.0361328125-4.6494140625-1.4052734375-4.7250976562-4.3271484375-.0380859375-1.0224609375.2084960938-2.666015625.740234375-4.9306640625.7202148438-3.25,2.4477539062-9.12890625,5.1801757812-17.638671875-4.6303710938,7.3046875-8.5200195312,12.7822265625-11.6694335938,16.43359375-6.072265625,6.939453125-11.6127929688,10.4267578125-16.6220703125,10.462890625-1.8217773438,0-3.3115234375-.59375-4.46875-1.7802734375-1.158203125-1.1865234375-1.755859375-2.65625-1.79296875-4.4091796875-.0385742188-2.5927734375.796875-6.79296875,2.5043945312-12.599609375l4.9526367188-16.9267578125c1.17578125-4.017578125,1.783203125-6.537109375,1.8212890625-7.5595703125,0-.4013671875-.1518554688-.767578125-.455078125-1.095703125-.3041992188-.3291015625-.6645507812-.4931640625-1.0815429688-.4931640625-1.2524414062,0-2.732421875.9130859375-4.4404296875,2.7392578125-1.1381835938,1.3876953125-2.2583007812,2.775390625-3.3583984375,4.1630859375l-1.7646484375-1.205078125c5.1987304688-7.7421875,10.4545898438-11.6494140625,15.7680664062-11.72265625,1.3662109375-.0361328125,2.5048828125.392578125,3.4155273438,1.287109375.9106445312.8955078125,1.3662109375,1.9990234375,1.3662109375,3.3134765625,0,2.0458984375-.759765625,5.5703125-2.2768554688,10.5732421875l-5.3510742188,17.693359375c-1.4799804688,4.89453125-2.2202148438,7.943359375-2.2202148438,9.1484375,0,.62109375.2280273438,1.1875.6831054688,1.6982421875.4555664062.365234375,1.1005859375.56640625,1.935546875.6025390625,3.263671875.0732421875,7.5712890625-3.1953125,12.921875-9.8056640625,3.3017578125-4.1259765625,6.0712890625-8.015625,8.3110351562-11.66796875,2.3525390625-3.87109375,4.6865234375-9.6591796875,7.001953125-17.365234375l1.2524414062-4.1630859375h8.65234375Z"></path><path class="cls-2" d="m561.8032226562,378.998046875l-11.2709960938,38.400390625c-.6831054688,2.30078125-1.0629882812,3.853515625-1.138671875,4.65625,0,.51171875.1708984375.9580078125.5126953125,1.341796875.3413085938.3837890625.77734375.59375,1.3090820312.6298828125.6064453125,0,1.2895507812-.2919921875,2.0493164062-.8759765625,2.1630859375-1.6435546875,4.3447265625-3.98046875,6.5463867188-7.01171875l1.9921875,1.259765625c-2.54296875,3.76171875-5.5786132812,6.95703125-9.1079101562,9.5859375-2.54296875,1.8984375-5.0092773438,2.8671875-7.400390625,2.9033203125-3.4536132812.0361328125-5.2182617188-1.533203125-5.2939453125-4.7109375-.0380859375-1.2412109375.4360351562-3.4873046875,1.4233398438-6.7373046875l7.3999023438-24.5419921875c1.1762695312-3.9072265625,1.7836914062-6.4267578125,1.8217773438-7.5595703125.0375976562-1.7529296875-1.0629882812-2.6650390625-3.3017578125-2.7392578125-.8349609375-.03515625-2.5615234375.1650390625-5.1801757812.603515625v-2.13671875l19.6391601562-3.0673828125Zm-.7397460938-21.748046875c1.59375-.0361328125,2.931640625.484375,4.0131835938,1.5615234375s1.640625,2.3828125,1.6791992188,3.9169921875c.037109375,1.4970703125-.5034179688,2.775390625-1.6225585938,3.833984375-1.1196289062,1.0595703125-2.4760742188,1.607421875-4.0698242188,1.6435546875-1.5942382812.037109375-2.931640625-.4833984375-4.0131835938-1.5615234375-1.0815429688-1.076171875-1.6420898438-2.3828125-1.6796875-3.916015625-.0380859375-1.5341796875.5029296875-2.8212890625,1.6225585938-3.8623046875,1.119140625-1.041015625,2.4760742188-1.5791015625,4.0703125-1.6162109375Z"></path><path class="cls-2" d="m628.47265625,350.6767578125l-19.58203125,64.6396484375c-1.0249023438,3.32421875-1.556640625,5.6240234375-1.5942382812,6.90234375-.0380859375,1.0224609375.4555664062,1.5341796875,1.48046875,1.5341796875.4926757812,0,1.0815429688-.2373046875,1.7646484375-.712890625,1.2138671875-.8388671875,3.376953125-3.0302734375,6.4892578125-6.5732421875l1.935546875,1.150390625c-6.1479492188,8.107421875-11.5185546875,12.197265625-16.1098632812,12.2705078125-2.9228515625.0361328125-4.4028320312-1.6435546875-4.4399414062-5.0390625-.0385742188-2.0087890625.5307617188-4.8017578125,1.7075195312-8.3818359375l2.2202148438-6.79296875c-8.994140625,13.4033203125-16.9833984375,20.140625-23.9653320312,20.2138671875-3.4921875.0361328125-6.224609375-1.478515625-8.197265625-4.546875-1.6704101562-2.591796875-2.5244140625-5.66015625-2.5615234375-9.2021484375-.0385742188-5.9521484375,1.9350585938-12.0703125,5.919921875-18.3515625,3.71875-5.8427734375,8.3110351562-10.5537109375,13.7758789062-14.1328125,4.66796875-3.068359375,8.9560546875-4.6201171875,12.865234375-4.65625,3.7568359375-.0361328125,6.9819335938,1.697265625,9.6772460938,5.2041015625l5.5786132812-19.0634765625c.1137695312-.3291015625.455078125-1.40625,1.0244140625-3.232421875.4555664062-1.423828125.6831054688-2.62890625.6831054688-3.615234375,0-.73046875-.2846679688-1.3701171875-.8540039062-1.9169921875-.7592773438-.583984375-1.7841796875-.89453125-3.0737304688-.931640625-.796875-.0361328125-2.2397460938.091796875-4.326171875.3837890625v-2.02734375l19.58203125-3.1220703125Zm-21.119140625,38.8935546875c0-2.2275390625-.6743164062-4.0810546875-2.0209960938-5.560546875-1.3471679688-1.478515625-3.1591796875-2.21875-5.4360351562-2.21875-5.6171875,0-10.9296875,4.2734375-15.9389648438,12.818359375-4.478515625,7.6337890625-6.7368164062,14.4267578125-6.7744140625,20.37890625,0,2.2275390625.4741210938,4.1083984375,1.4233398438,5.6416015625,1.138671875,1.86328125,2.7895507812,2.7939453125,4.9526367188,2.7939453125,4.6674804688,0,9.8666992188-4.4375,15.5971679688-13.3115234375,5.4267578125-8.3994140625,8.1591796875-15.24609375,8.197265625-20.5419921875Z"></path><path class="cls-2" d="m648.5209960938,378.998046875l-11.2709960938,38.400390625c-.6831054688,2.30078125-1.0629882812,3.853515625-1.138671875,4.65625,0,.51171875.1708984375.9580078125.5126953125,1.341796875.3413085938.3837890625.77734375.59375,1.3090820312.6298828125.6064453125,0,1.2895507812-.2919921875,2.0493164062-.8759765625,2.1630859375-1.6435546875,4.3447265625-3.98046875,6.5463867188-7.01171875l1.9921875,1.259765625c-2.54296875,3.76171875-5.5786132812,6.95703125-9.1079101562,9.5859375-2.54296875,1.8984375-5.0092773438,2.8671875-7.400390625,2.9033203125-3.4536132812.0361328125-5.2182617188-1.533203125-5.2939453125-4.7109375-.0380859375-1.2412109375.4360351562-3.4873046875,1.4233398438-6.7373046875l7.3999023438-24.5419921875c1.1762695312-3.9072265625,1.7836914062-6.4267578125,1.8217773438-7.5595703125.0375976562-1.7529296875-1.0629882812-2.6650390625-3.3017578125-2.7392578125-.8349609375-.03515625-2.5615234375.1650390625-5.1801757812.603515625v-2.13671875l19.6391601562-3.0673828125Zm-.7397460938-21.748046875c1.59375-.0361328125,2.931640625.484375,4.0131835938,1.5615234375s1.640625,2.3828125,1.6791992188,3.9169921875c.037109375,1.4970703125-.5034179688,2.775390625-1.6225585938,3.833984375-1.1196289062,1.0595703125-2.4760742188,1.607421875-4.0698242188,1.6435546875-1.5942382812.037109375-2.931640625-.4833984375-4.0131835938-1.5615234375-1.0815429688-1.076171875-1.6420898438-2.3828125-1.6796875-3.916015625-.0380859375-1.5341796875.5029296875-2.8212890625,1.6225585938-3.8623046875,1.119140625-1.041015625,2.4760742188-1.5791015625,4.0703125-1.6162109375Z"></path><path class="cls-2" d="m677.84765625,378.998046875l-7.5708007812,24.9248046875c5.1987304688-7.5234375,8.994140625-12.599609375,11.384765625-15.2294921875,5.7680664062-6.4267578125,11.0434570312-9.6591796875,15.8251953125-9.6953125,1.935546875-.0361328125,3.509765625.5751953125,4.724609375,1.8349609375,1.2143554688,1.259765625,1.8217773438,2.8212890625,1.8217773438,4.68359375,0,2.19140625-.55078125,5.11328125-1.6508789062,8.7646484375l-6.9448242188,23.0625c-.796875,2.62890625-1.1953125,4.2548828125-1.1953125,4.875,0,1.205078125.4741210938,1.8076171875,1.4228515625,1.8076171875.4555664062,0,1.0053710938-.2373046875,1.6508789062-.7119140625,1.935546875-1.4599609375,4.1362304688-3.7978515625,6.603515625-7.01171875l1.7646484375,1.041015625c-6.1108398438,8.36328125-11.4233398438,12.5439453125-15.9389648438,12.5439453125-3.0366210938,0-4.5737304688-1.5146484375-4.6108398438-4.546875-.0385742188-1.642578125.6064453125-4.65625,1.9350585938-9.0380859375l6.603515625-22.021484375c.796875-2.6298828125,1.2138671875-4.765625,1.2524414062-6.4091796875.037109375-1.6064453125-.81640625-2.4287109375-2.5615234375-2.46484375-.9873046875-.0361328125-2.2583007812.40234375-3.8139648438,1.314453125-5.3510742188,3.1416015625-11.48046875,10.681640625-18.38671875,22.6240234375-1.8217773438,3.1416015625-3.3017578125,6.537109375-4.4404296875,10.1884765625l-2.8461914062,9.0390625h-8.5385742188l10.3603515625-34.2919921875c1.17578125-3.9072265625,1.783203125-6.390625,1.8212890625-7.4501953125.0756835938-1.935546875-1.0815429688-2.939453125-3.4721679688-3.0126953125-.4936523438-.0361328125-1.2905273438.037109375-2.3911132812.21875l-2.1630859375.3291015625-.3413085938-1.97265625,19.6958007812-3.3955078125Z"></path><path class="cls-2" d="m769.1655273438,382.3935546875l-1.6508789062,5.697265625h-9.5063476562c.720703125,2.0458984375,1.0815429688,3.8896484375,1.0815429688,5.533203125.0375976562,5.7333984375-2.5615234375,10.3896484375-7.798828125,13.96875-4.5166015625,3.0673828125-9.9243164062,4.7841796875-16.2236328125,5.1494140625-3.947265625,1.1318359375-6.9643554688,2.51953125-9.05078125,4.1630859375-.7211914062.5849609375-1.1010742188,1.1875-1.138671875,1.8076171875-.0380859375.6572265625.3129882812,1.306640625,1.0532226562,1.9443359375.740234375.6396484375,2.4565429688,1.26953125,5.1518554688,1.890625l11.0434570312,2.46484375c4.515625,1.0224609375,7.8359375,2.1552734375,9.9614257812,3.396484375,3.3774414062,1.9716796875,5.06640625,4.7109375,5.06640625,8.216796875,0,6.4267578125-4.5166015625,11.1015625-13.5478515625,14.0234375-4.4028320312,1.4248046875-9.2788085938,2.13671875-14.6298828125,2.13671875-10.4741210938,0-17.5327148438-1.9912109375-21.17578125-5.9716796875-1.6313476562-1.7890625-2.466796875-3.669921875-2.5048828125-5.6416015625-.0756835938-3.505859375,1.8217773438-6.5380859375,5.6923828125-9.09375.8344726562-.5478515625,3.7377929688-2.19140625,8.7094726562-4.9296875-1.7075195312-1.3154296875-2.5810546875-2.7578125-2.6186523438-4.328125-.076171875-3.5419921875,3.9467773438-6.90234375,12.068359375-10.0791015625-3.7954101562-.693359375-6.9448242188-2.208984375-9.4497070312-4.546875-2.732421875-2.51953125-4.1181640625-5.568359375-4.1552734375-9.1484375-.0385742188-6.1708984375,2.76953125-11.15625,8.4248046875-14.955078125,5.0092773438-3.359375,10.8530273438-5.0576171875,17.5327148438-5.09375,4.9711914062-.0361328125,9.0698242188,1.0947265625,12.2958984375,3.3955078125h15.3696289062Zm-47.0200195312,46.1796875c-6.1479492188,2.6298828125-9.259765625,6.4453125-9.3354492188,11.44921875-.0385742188,2.373046875,1.1000976562,4.36328125,3.4155273438,5.970703125,3.2250976562,2.2275390625,8.0068359375,3.359375,14.3447265625,3.396484375,5.3129882812.0361328125,9.923828125-.849609375,13.8330078125-2.6572265625,3.908203125-1.8076171875,5.86328125-4.099609375,5.86328125-6.875,0-1.3876953125-.7114257812-2.73046875-2.134765625-4.025390625-1.4233398438-1.296875-4.1840820312-2.34765625-8.2827148438-3.150390625-2.01171875-.40234375-7.9125976562-1.771484375-17.7036132812-4.1083984375Zm27.2670898438-37.5791015625c.0375976562-2.8115234375-.7685546875-5.0751953125-2.4194335938-6.7919921875-1.650390625-1.716796875-3.8994140625-2.5927734375-6.7456054688-2.6298828125-4.4028320312-.0361328125-8.0458984375,2.1728515625-10.9291992188,6.6279296875-2.54296875,3.8720703125-3.8334960938,8.052734375-3.87109375,12.544921875-.0380859375,2.666015625.796875,4.921875,2.5048828125,6.765625,1.7075195312,1.84375,3.927734375,2.78515625,6.66015625,2.8212890625,1.97265625.0361328125,3.908203125-.4931640625,5.8061523438-1.5888671875,3.7573242188-2.154296875,6.3754882812-5.9892578125,7.85546875-11.50390625.7587890625-2.775390625,1.138671875-4.8564453125,1.138671875-6.2451171875Z"></path><path class="cls-2" d="m877.4008789062,352.59375l-5.7490234375,24.0478515625h-2.0498046875l-.2275390625-6.025390625c-.076171875-1.9716796875-.51171875-3.9248046875-1.3095703125-5.861328125-1.4794921875-3.5419921875-4.2314453125-6.0068359375-8.25390625-7.3955078125-2.0874023438-.7294921875-4.4028320312-1.095703125-6.9448242188-1.095703125-6.7172851562-.03515625-12.6567382812,1.7529296875-17.8173828125,5.369140625-6.4897460938,4.5654296875-11.5756835938,11.0107421875-15.255859375,19.3369140625-3.0366210938,6.8291015625-4.5541992188,13.7861328125-4.5541992188,20.87109375,0,7.048828125,2.0869140625,12.7275390625,6.26171875,17.0361328125,4.2880859375,4.419921875,10.0561523438,6.62890625,17.3051757812,6.62890625,10.0942382812,0,18.6142578125-4.6201171875,25.5590820312-13.859375h2.67578125c-4.0986328125,6.28125-8.55859375,10.8828125-13.3774414062,13.8046875-5.2368164062,3.1767578125-11.4990234375,4.783203125-18.78515625,4.8203125-5.9965820312.0361328125-11.384765625-1.1142578125-16.1665039062-3.451171875-5.1235351562-2.5556640625-9.013671875-6.2451171875-11.669921875-11.0654296875-2.5043945312-4.6015625-3.7763671875-9.5498046875-3.8139648438-14.845703125-.0380859375-8.3994140625,2.267578125-16.396484375,6.9165039062-23.9931640625,4.6484375-7.595703125,10.787109375-13.51171875,18.4150390625-17.7490234375,7.8930664062-4.3818359375,15.84375-6.5732421875,23.8515625-6.5732421875,3.7573242188,0,7.9697265625.8583984375,12.6376953125,2.57421875,1.896484375.6943359375,3.376953125,1.060546875,4.439453125,1.095703125,1.59375.037109375,3.529296875-1.185546875,5.806640625-3.669921875h2.1064453125Z"></path><path class="cls-2" d="m925.8540039062,378.998046875l-12.3525390625,42.125c-.11328125.4384765625-.1708984375.8408203125-.1708984375,1.205078125,0,1.3515625.5693359375,2.02734375,1.7080078125,2.02734375,1.517578125,0,4.1357421875-2.4833984375,7.85546875-7.4501953125l1.935546875,1.314453125c-5.388671875,7.779296875-10.64453125,11.66796875-15.767578125,11.66796875-1.5947265625,0-2.8095703125-.3828125-3.64453125-1.150390625-.833984375-.7666015625-1.251953125-1.9169921875-1.251953125-3.451171875,0-1.8251953125.41796875-4.1806640625,1.251953125-7.06640625l1.1962890625-4.1083984375c-8.2744140625,10.4453125-15.7880859375,15.703125-22.5419921875,15.7763671875-3.2646484375.0361328125-5.845703125-1.296875-7.7421875-3.9990234375-1.59375-2.30078125-2.41015625-5.1123046875-2.447265625-8.435546875-.0390625-6.0986328125,1.8583984375-12.3984375,5.69140625-18.8994140625,3.6435546875-6.1708984375,8.16015625-11.15625,13.548828125-14.955078125,4.36328125-3.0673828125,8.4814453125-4.6005859375,12.3525390625-4.6005859375,4.6298828125,0,7.7216796875,2.51953125,9.2783203125,7.5595703125l2.0498046875-6.2451171875,9.05078125-1.314453125Zm-20.2646484375,2.84765625c-2.353515625-.03515625-4.93359375,1.060546875-7.7421875,3.287109375-3.984375,3.1416015625-7.4482421875,7.7333984375-10.388671875,13.77734375-2.94140625,6.044921875-4.431640625,11.5673828125-4.46875,16.5703125,0,2.0458984375.51171875,3.8349609375,1.537109375,5.369140625,1.17578125,1.7890625,2.7890625,2.68359375,4.837890625,2.68359375,4.099609375,0,8.595703125-2.939453125,13.4921875-8.8193359375,6.4892578125-7.814453125,9.734375-15.8310546875,9.734375-24.0478515625,0-5.806640625-2.333984375-8.74609375-7.001953125-8.8203125Z"></path><path class="cls-2" d="m933.3217773438,382.0654296875l19.638671875-3.0673828125-8.197265625,26.6220703125c6.5654296875-10.8818359375,12.599609375-18.5146484375,18.1025390625-22.8974609375,3.0361328125-2.4462890625,5.5400390625-3.6884765625,7.513671875-3.724609375,1.21484375-.0361328125,2.1826171875.310546875,2.9033203125,1.0400390625.720703125.7314453125,1.1005859375,1.7724609375,1.138671875,3.123046875.037109375,2.30078125-.607421875,4.6015625-1.935546875,6.90234375-.94921875,1.642578125-2.2578125,2.46484375-3.927734375,2.46484375-.8349609375,0-1.59375-.2744140625-2.27734375-.822265625-.53125-.5107421875-.91015625-1.3505859375-1.1376953125-2.51953125-.0771484375-1.095703125-.607421875-1.6982421875-1.59375-1.8076171875-.646484375,0-1.2529296875.146484375-1.822265625.4384765625-.91015625.474609375-2.41015625,1.8994140625-4.4970703125,4.2724609375-3.150390625,3.580078125-6.5654296875,8.216796875-10.24609375,13.9140625-1.6318359375,2.484375-2.998046875,5.2041015625-4.0986328125,8.162109375-1.6708984375,4.3828125-2.5810546875,6.884765625-2.732421875,7.5048828125l-1.8212890625,6.90234375h-8.7099609375l10.53125-34.0185546875c1.17578125-3.7607421875,1.783203125-6.5732421875,1.8212890625-8.435546875.037109375-1.6064453125-1.251953125-2.4462890625-3.87109375-2.5205078125-.6455078125,0-2.10546875.1650390625-4.3828125.4931640625l-.3984375-2.0263671875Z"></path><path class="cls-2" d="m980.4086914062,407.9208984375c-.265625,2.0087890625-.3984375,3.525390625-.3984375,4.546875-.0380859375,3.287109375,1.138671875,6.0537109375,3.529296875,8.2998046875,2.390625,2.2451171875,5.3125,3.3876953125,8.7666015625,3.4228515625,3.3017578125.037109375,6.716796875-.8935546875,10.24609375-2.79296875,1.97265625-1.0224609375,4.93359375-3.013671875,8.880859375-5.9716796875l1.1953125,1.5888671875c-8.994140625,8.5458984375-17.5712890625,12.8369140625-25.73046875,12.873046875-4.93359375.0361328125-8.947265625-1.4599609375-12.0390625-4.4912109375-3.09375-3.03125-4.6591796875-6.9208984375-4.6962890625-11.6689453125-.0390625-5.623046875,1.7646484375-11.3203125,5.4072265625-17.0908203125,3.4912109375-5.4775390625,7.845703125-9.787109375,13.064453125-12.927734375,5.2177734375-3.140625,10.6162109375-4.7109375,16.1953125-4.7109375,3.111328125,0,5.7294921875.56640625,7.85546875,1.697265625,2.65625,1.388671875,3.984375,3.470703125,3.984375,6.2451171875,0,3.0322265625-1.251953125,5.935546875-3.7568359375,8.7099609375-3.2255859375,3.580078125-8.0830078125,6.5009765625-14.572265625,8.7646484375-4.17578125,1.4619140625-10.15234375,2.6298828125-17.931640625,3.505859375Zm.3984375-2.68359375c5.5791015625-.583984375,10.169921875-1.65234375,13.775390625-3.205078125,3.60546875-1.5517578125,6.6611328125-3.49609375,9.1650390625-5.833984375,3.1494140625-2.9580078125,4.744140625-6.0615234375,4.7822265625-9.3125.037109375-3.396484375-1.8984375-5.1123046875-5.806640625-5.1494140625-5.2373046875-.0361328125-10.0380859375,2.7216796875-14.40234375,8.2724609375-3.529296875,4.455078125-6.033203125,9.53125-7.513671875,15.228515625Z"></path><path class="cls-2" d="m1030.1723632812,407.9208984375c-.265625,2.0087890625-.3984375,3.525390625-.3984375,4.546875-.0380859375,3.287109375,1.138671875,6.0537109375,3.529296875,8.2998046875,2.390625,2.2451171875,5.3125,3.3876953125,8.7666015625,3.4228515625,3.3017578125.037109375,6.716796875-.8935546875,10.24609375-2.79296875,1.97265625-1.0224609375,4.93359375-3.013671875,8.880859375-5.9716796875l1.1953125,1.5888671875c-8.994140625,8.5458984375-17.5712890625,12.8369140625-25.73046875,12.873046875-4.93359375.0361328125-8.947265625-1.4599609375-12.0390625-4.4912109375-3.09375-3.03125-4.6591796875-6.9208984375-4.6962890625-11.6689453125-.0390625-5.623046875,1.7646484375-11.3203125,5.4072265625-17.0908203125,3.4912109375-5.4775390625,7.845703125-9.787109375,13.064453125-12.927734375,5.2177734375-3.140625,10.6162109375-4.7109375,16.1953125-4.7109375,3.111328125,0,5.7294921875.56640625,7.85546875,1.697265625,2.65625,1.388671875,3.984375,3.470703125,3.984375,6.2451171875,0,3.0322265625-1.251953125,5.935546875-3.7568359375,8.7099609375-3.2255859375,3.580078125-8.0830078125,6.5009765625-14.572265625,8.7646484375-4.17578125,1.4619140625-10.15234375,2.6298828125-17.931640625,3.505859375Zm.3984375-2.68359375c5.5791015625-.583984375,10.169921875-1.65234375,13.775390625-3.205078125,3.60546875-1.5517578125,6.6611328125-3.49609375,9.1650390625-5.833984375,3.1494140625-2.9580078125,4.744140625-6.0615234375,4.7822265625-9.3125.037109375-3.396484375-1.8984375-5.1123046875-5.806640625-5.1494140625-5.2373046875-.0361328125-10.0380859375,2.7216796875-14.40234375,8.2724609375-3.529296875,4.455078125-6.033203125,9.53125-7.513671875,15.228515625Z"></path><path class="cls-2" d="m1071.9086914062,382.0654296875l19.638671875-3.0673828125-8.197265625,26.6220703125c6.5654296875-10.8818359375,12.599609375-18.5146484375,18.1025390625-22.8974609375,3.0361328125-2.4462890625,5.5400390625-3.6884765625,7.513671875-3.724609375,1.21484375-.0361328125,2.1826171875.310546875,2.9033203125,1.0400390625.720703125.7314453125,1.1005859375,1.7724609375,1.138671875,3.123046875.037109375,2.30078125-.607421875,4.6015625-1.935546875,6.90234375-.94921875,1.642578125-2.2578125,2.46484375-3.927734375,2.46484375-.8349609375,0-1.59375-.2744140625-2.27734375-.822265625-.53125-.5107421875-.91015625-1.3505859375-1.1376953125-2.51953125-.0771484375-1.095703125-.607421875-1.6982421875-1.59375-1.8076171875-.646484375,0-1.2529296875.146484375-1.822265625.4384765625-.91015625.474609375-2.41015625,1.8994140625-4.4970703125,4.2724609375-3.150390625,3.580078125-6.5654296875,8.216796875-10.24609375,13.9140625-1.6318359375,2.484375-2.998046875,5.2041015625-4.0986328125,8.162109375-1.6708984375,4.3828125-2.5810546875,6.884765625-2.732421875,7.5048828125l-1.8212890625,6.90234375h-8.7099609375l10.53125-34.0185546875c1.17578125-3.7607421875,1.783203125-6.5732421875,1.8212890625-8.435546875.037109375-1.6064453125-1.251953125-2.4462890625-3.87109375-2.5205078125-.6455078125,0-2.10546875.1650390625-4.3828125.4931640625l-.3984375-2.0263671875Z"></path><path class="cls-2" d="m1140.8647460938,430.271484375l6.3759765625-27.5546875h1.935546875c-.2666015625,2.9228515625-.3984375,5.1318359375-.3984375,6.62890625-.0390625,5.076171875,1.6220703125,9.1572265625,4.98046875,12.2431640625,3.3583984375,3.0869140625,7.693359375,4.6474609375,13.0078125,4.68359375,4.5537109375.037109375,8.2158203125-1.287109375,10.986328125-3.9716796875,2.76953125-2.68359375,4.173828125-6.2177734375,4.2119140625-10.599609375.037109375-2.4833984375-.55078125-4.7470703125-1.7646484375-6.79296875-1.8212890625-3.140625-6.583984375-8.4716796875-14.2880859375-15.9951171875-3.8330078125-3.76171875-6.2431640625-6.482421875-7.2294921875-8.162109375-1.7080078125-2.994140625-2.5810546875-6.0986328125-2.6181640625-9.3125-.0380859375-5.587890625,2.125-10.1708984375,6.4892578125-13.75,4.0986328125-3.359375,9.1083984375-5.0576171875,15.0283203125-5.0947265625,2.0869140625,0,4.0986328125.201171875,6.0341796875.6025390625,1.17578125.255859375,3.3203125.986328125,6.4326171875,2.19140625,1.1376953125.40234375,2.3525390625.8583984375,3.642578125,1.369140625.53125.109375,1.119140625.1640625,1.7646484375.1640625,2.0498046875,0,3.927734375-1.44140625,5.6357421875-4.3271484375h2.1630859375l-5.919921875,24.6513671875h-1.935546875c.0751953125-1.3154296875.1513671875-3.0859375.2275390625-5.314453125.037109375-4.564453125-1.537109375-8.234375-4.724609375-11.0107421875-3.07421875-2.6650390625-7.021484375-4.0166015625-11.8408203125-4.0537109375-3.529296875-.03515625-6.583984375.931640625-9.1640625,2.9033203125-2.732421875,2.119140625-4.1181640625,4.83984375-4.15625,8.162109375-.0380859375,3.21484375,1.517578125,6.68359375,4.66796875,10.408203125,1.138671875,1.3154296875,3.974609375,4.0537109375,8.5107421875,8.2177734375,4.5341796875,4.1630859375,7.6181640625,7.376953125,9.25,9.640625,2.845703125,3.87109375,4.2880859375,7.888671875,4.326171875,12.0517578125.037109375,3.9443359375-1.0439453125,7.66015625-3.2451171875,11.1474609375-2.201171875,3.48828125-5.123046875,6.14453125-8.765625,7.970703125-3.7958984375,1.8984375-8.0263671875,2.8662109375-12.6943359375,2.9033203125-3.947265625.0361328125-9.2216796875-1.150390625-15.8251953125-3.560546875-1.5185546875-.5478515625-2.751953125-.822265625-3.7001953125-.822265625-2.201171875,0-3.947265625,1.4619140625-5.2373046875,4.3828125h-2.1630859375Z"></path><path class="cls-2" d="m1223.1889648438,378.998046875l-11.271484375,38.400390625c-.6826171875,2.30078125-1.0625,3.853515625-1.1376953125,4.65625,0,.51171875.1708984375.9580078125.51171875,1.341796875.341796875.3837890625.77734375.59375,1.3095703125.6298828125.6064453125,0,1.2900390625-.2919921875,2.048828125-.8759765625,2.1630859375-1.6435546875,4.345703125-3.98046875,6.546875-7.01171875l1.9921875,1.259765625c-2.54296875,3.76171875-5.578125,6.95703125-9.107421875,9.5859375-2.54296875,1.8984375-5.009765625,2.8671875-7.400390625,2.9033203125-3.4541015625.0361328125-5.21875-1.533203125-5.2939453125-4.7109375-.0390625-1.2412109375.435546875-3.4873046875,1.4228515625-6.7373046875l7.400390625-24.5419921875c1.17578125-3.9072265625,1.783203125-6.4267578125,1.8212890625-7.5595703125.037109375-1.7529296875-1.0625-2.6650390625-3.3017578125-2.7392578125-.8349609375-.03515625-2.5615234375.1650390625-5.1796875.603515625v-2.13671875l19.638671875-3.0673828125Zm-.740234375-21.748046875c1.59375-.0361328125,2.931640625.484375,4.013671875,1.5615234375,1.0810546875,1.0771484375,1.640625,2.3828125,1.6787109375,3.9169921875.0380859375,1.4970703125-.5029296875,2.775390625-1.6220703125,3.833984375-1.1201171875,1.0595703125-2.4765625,1.607421875-4.0703125,1.6435546875-1.59375.037109375-2.931640625-.4833984375-4.0126953125-1.5615234375-1.08203125-1.076171875-1.642578125-2.3828125-1.6796875-3.916015625-.0380859375-1.5341796875.5029296875-2.8212890625,1.6220703125-3.8623046875s2.4765625-1.5791015625,4.0703125-1.6162109375Z"></path><path class="cls-2" d="m1252.5161132812,378.998046875l-7.5712890625,24.9248046875c5.1982421875-7.5234375,8.994140625-12.599609375,11.384765625-15.2294921875,5.7685546875-6.4267578125,11.0439453125-9.6591796875,15.8251953125-9.6953125,1.935546875-.0361328125,3.509765625.5751953125,4.724609375,1.8349609375,1.2138671875,1.259765625,1.8212890625,2.8212890625,1.8212890625,4.68359375,0,2.19140625-.5498046875,5.11328125-1.650390625,8.7646484375l-6.9453125,23.0625c-.796875,2.62890625-1.1953125,4.2548828125-1.1953125,4.875,0,1.205078125.474609375,1.8076171875,1.423828125,1.8076171875.455078125,0,1.0048828125-.2373046875,1.650390625-.7119140625,1.935546875-1.4599609375,4.1357421875-3.7978515625,6.603515625-7.01171875l1.7646484375,1.041015625c-6.1103515625,8.36328125-11.4228515625,12.5439453125-15.939453125,12.5439453125-3.0361328125,0-4.5732421875-1.5146484375-4.6103515625-4.546875-.0380859375-1.642578125.6064453125-4.65625,1.935546875-9.0380859375l6.6025390625-22.021484375c.7978515625-2.6298828125,1.21484375-4.765625,1.2529296875-6.4091796875.037109375-1.6064453125-.81640625-2.4287109375-2.5615234375-2.46484375-.9873046875-.0361328125-2.2587890625.40234375-3.814453125,1.314453125-5.3505859375,3.1416015625-11.4794921875,10.681640625-18.38671875,22.6240234375-1.8212890625,3.1416015625-3.3017578125,6.537109375-4.439453125,10.1884765625l-2.8466796875,9.0390625h-8.5390625l10.3603515625-34.2919921875c1.17578125-3.9072265625,1.783203125-6.390625,1.822265625-7.4501953125.0751953125-1.935546875-1.08203125-2.939453125-3.47265625-3.0126953125-.494140625-.0361328125-1.291015625.037109375-2.390625.21875l-2.1630859375.3291015625-.341796875-1.97265625,19.6962890625-3.3955078125Z"></path><path class="cls-2" d="m1328.3500976562,416.630859375c-7.58984375,8.8017578125-15.8251953125,13.220703125-24.705078125,13.2568359375-5.3134765625.0361328125-9.4873046875-1.3779296875-12.5234375-4.2451171875-3.0361328125-2.8662109375-4.5732421875-6.837890625-4.611328125-11.9150390625-.0380859375-5.841796875,1.6513671875-11.484375,5.06640625-16.9267578125,3.263671875-5.1845703125,7.5517578125-9.421875,12.865234375-12.708984375,5.501953125-3.396484375,10.8916015625-5.09375,16.1669921875-5.09375,3.3017578125,0,6.0712890625.62109375,8.310546875,1.8623046875,2.6943359375,1.533203125,4.0419921875,3.779296875,4.0419921875,6.7373046875,0,2.228515625-.7216796875,4.1640625-2.1630859375,5.806640625-1.0625,1.205078125-2.3720703125,1.8271484375-3.927734375,1.86328125-2.6572265625.0361328125-4.0234375-1.2412109375-4.0986328125-3.8349609375-.0380859375-1.2783203125.6826171875-2.6103515625,2.1630859375-3.9990234375.720703125-.6572265625,1.1572265625-1.095703125,1.3095703125-1.314453125.3408203125-.4384765625.548828125-.986328125.6259765625-1.6435546875,0-1.9716796875-1.9169921875-2.9765625-5.75-3.0126953125-3.642578125-.0361328125-7.3056640625,1.205078125-10.986328125,3.724609375-3.681640625,2.5205078125-6.8125,6.1171875-9.392578125,10.7919921875-3.0732421875,5.5517578125-4.6298828125,11.1748046875-4.66796875,16.8720703125-.0380859375,3.724609375,1.0341796875,6.6650390625,3.216796875,8.8193359375,2.181640625,2.1552734375,5.2080078125,3.2509765625,9.0791015625,3.287109375,5.806640625.0361328125,11.916015625-3.2138671875,18.330078125-9.7509765625l1.650390625,1.423828125Z"></path><path class="cls-2" d="m1346.7475585938,407.9208984375c-.265625,2.0087890625-.3984375,3.525390625-.3984375,4.546875-.0380859375,3.287109375,1.138671875,6.0537109375,3.529296875,8.2998046875,2.390625,2.2451171875,5.3125,3.3876953125,8.7666015625,3.4228515625,3.3017578125.037109375,6.716796875-.8935546875,10.24609375-2.79296875,1.97265625-1.0224609375,4.93359375-3.013671875,8.880859375-5.9716796875l1.1953125,1.5888671875c-8.994140625,8.5458984375-17.5712890625,12.8369140625-25.73046875,12.873046875-4.93359375.0361328125-8.947265625-1.4599609375-12.0390625-4.4912109375-3.09375-3.03125-4.6591796875-6.9208984375-4.6962890625-11.6689453125-.0390625-5.623046875,1.7646484375-11.3203125,5.4072265625-17.0908203125,3.4912109375-5.4775390625,7.845703125-9.787109375,13.064453125-12.927734375,5.2177734375-3.140625,10.6162109375-4.7109375,16.1953125-4.7109375,3.111328125,0,5.7294921875.56640625,7.85546875,1.697265625,2.65625,1.388671875,3.984375,3.470703125,3.984375,6.2451171875,0,3.0322265625-1.251953125,5.935546875-3.7568359375,8.7099609375-3.2255859375,3.580078125-8.0830078125,6.5009765625-14.572265625,8.7646484375-4.17578125,1.4619140625-10.15234375,2.6298828125-17.931640625,3.505859375Zm.3984375-2.68359375c5.5791015625-.583984375,10.169921875-1.65234375,13.775390625-3.205078125,3.60546875-1.5517578125,6.6611328125-3.49609375,9.1650390625-5.833984375,3.1494140625-2.9580078125,4.744140625-6.0615234375,4.7822265625-9.3125.037109375-3.396484375-1.8984375-5.1123046875-5.806640625-5.1494140625-5.2373046875-.0361328125-10.0380859375,2.7216796875-14.40234375,8.2724609375-3.529296875,4.455078125-6.033203125,9.53125-7.513671875,15.228515625Z"></path><path class="cls-2" d="m1473.4262695312,372.9169921875c-1.4052734375,5.00390625-3.927734375,9.60546875-7.5712890625,13.8046875-4.2890625,4.966796875-8.5009765625,9.203125-12.6376953125,12.708984375l-24.25,20.5966796875h25.9013671875c2.390625,0,4.6484375-.857421875,6.7734375-2.57421875l4.5546875-4.8203125,1.1376953125.546875-10.0185546875,15.3935546875h-40.9287109375l.341796875-1.369140625,25.103515625-21.5283203125c4.060546875-3.4697265625,8.330078125-7.9619140625,12.80859375-13.4765625,4.2119140625-5.1845703125,7.0009765625-10.1884765625,8.3671875-15.009765625.607421875-2.1171875.9296875-3.9794921875.9677734375-5.5869140625.076171875-2.08203125-.474609375-4.072265625-1.650390625-5.970703125-1.8603515625-2.994140625-5.0859375-4.5283203125-9.677734375-4.6015625-3.4150390625-.0361328125-6.6416015625,1.0947265625-9.6767578125,3.3955078125-2.884765625,2.19140625-6.0341796875,5.9169921875-9.44921875,11.17578125l-1.935546875-.5478515625c2.732421875-6.318359375,6.6025390625-11.6318359375,11.6123046875-15.94140625,4.8955078125-4.2353515625,10.455078125-6.3544921875,16.6787109375-6.3544921875,5.388671875,0,9.392578125,1.9365234375,12.01171875,5.806640625,1.4794921875,2.19140625,2.2568359375,4.9677734375,2.333984375,8.3271484375.037109375,1.9716796875-.2275390625,3.98046875-.796875,6.025390625Z"></path><path class="cls-2" d="m1524.0424804688,391.3232421875c-2.6181640625,9.4951171875-6.97265625,18.3330078125-13.064453125,26.5126953125-6.0908203125,8.181640625-13.234375,12.2890625-21.431640625,12.326171875-8.2353515625.0361328125-13.130859375-3.92578125-14.6865234375-11.8876953125-.494140625-2.5556640625-.7783203125-5.5869140625-.8544921875-9.0927734375-.0380859375-2.30078125.208984375-5.1494140625.740234375-8.5458984375.5693359375-3.6513671875,1.2138671875-6.71875,1.935546875-9.203125,2.8466796875-9.896484375,6.736328125-18.22265625,11.669921875-24.9794921875,6.6787109375-9.056640625,14.306640625-13.62109375,22.8837890625-13.6953125,8.841796875-.072265625,13.8515625,4.8759765625,15.0283203125,14.845703125.189453125,1.7900390625.302734375,3.908203125.3408203125,6.3544921875.076171875,5.1494140625-.7783203125,10.9375-2.5615234375,17.365234375Zm-36.9443359375-1.095703125c-1.59375,5.84375-2.9599609375,11.66796875-4.0986328125,17.474609375-.455078125,2.337890625-.6826171875,4.693359375-.6826171875,7.06640625,0,1.095703125.0751953125,2.1005859375.2275390625,3.0126953125.0751953125.767578125.2646484375,1.8994140625.5693359375,3.396484375.8720703125,4.017578125,3.2822265625,6.0263671875,7.2294921875,6.0263671875,5.578125,0,10.322265625-3.6884765625,14.2314453125-11.0654296875,3.3388671875-6.318359375,6.4892578125-14.7724609375,9.44921875-25.36328125,2.76953125-9.8232421875,4.1923828125-17.4560546875,4.26953125-22.8984375.037109375-1.2412109375-.0771484375-2.591796875-.341796875-4.0537109375-.9111328125-5.404296875-3.4345703125-8.125-7.5712890625-8.162109375-4.8955078125-.072265625-9.4873046875,3.54296875-13.775390625,10.8466796875-3.794921875,6.5380859375-6.96484375,14.4443359375-9.5068359375,23.7197265625Z"></path><path class="cls-2" d="m1574.5454101562,391.3232421875c-2.6181640625,9.4951171875-6.97265625,18.3330078125-13.064453125,26.5126953125-6.0908203125,8.181640625-13.234375,12.2890625-21.431640625,12.326171875-8.2353515625.0361328125-13.130859375-3.92578125-14.6865234375-11.8876953125-.494140625-2.5556640625-.7783203125-5.5869140625-.8544921875-9.0927734375-.0380859375-2.30078125.208984375-5.1494140625.740234375-8.5458984375.5693359375-3.6513671875,1.2138671875-6.71875,1.935546875-9.203125,2.8466796875-9.896484375,6.736328125-18.22265625,11.669921875-24.9794921875,6.6787109375-9.056640625,14.306640625-13.62109375,22.8837890625-13.6953125,8.841796875-.072265625,13.8515625,4.8759765625,15.0283203125,14.845703125.189453125,1.7900390625.302734375,3.908203125.3408203125,6.3544921875.076171875,5.1494140625-.7783203125,10.9375-2.5615234375,17.365234375Zm-36.9443359375-1.095703125c-1.59375,5.84375-2.9599609375,11.66796875-4.0986328125,17.474609375-.455078125,2.337890625-.6826171875,4.693359375-.6826171875,7.06640625,0,1.095703125.0751953125,2.1005859375.2275390625,3.0126953125.0751953125.767578125.2646484375,1.8994140625.5693359375,3.396484375.8720703125,4.017578125,3.2822265625,6.0263671875,7.2294921875,6.0263671875,5.578125,0,10.322265625-3.6884765625,14.2314453125-11.0654296875,3.3388671875-6.318359375,6.4892578125-14.7724609375,9.44921875-25.36328125,2.76953125-9.8232421875,4.1923828125-17.4560546875,4.26953125-22.8984375.037109375-1.2412109375-.0771484375-2.591796875-.341796875-4.0537109375-.9111328125-5.404296875-3.4345703125-8.125-7.5712890625-8.162109375-4.8955078125-.072265625-9.4873046875,3.54296875-13.775390625,10.8466796875-3.794921875,6.5380859375-6.96484375,14.4443359375-9.5068359375,23.7197265625Z"></path><path class="cls-2" d="m1632.6196289062,354.2919921875l-.455078125,1.8076171875-42.8076171875,73.3505859375h-6.7744140625l39.44921875-66.83203125h-23.2255859375c-2.6572265625,0-4.9716796875.6572265625-6.9443359375,1.97265625-1.974609375,1.314453125-4.4033203125,3.6884765625-7.287109375,7.12109375l-1.4794921875-.931640625,6.716796875-9.9697265625,3.984375-6.5185546875h38.8232421875Z"></path></g></svg>